# xmcd CD database file
#
# Track frame offsets:
#	150
#	39117
#	61187
#	80537
#	91770
#	114440
#	134392
#	161100
#	184655
#	212840
#
# Disc length: 3224 seconds
#
# Revision: 1
# Processed by: cddbd v1.5.2PL0 Copyright (c) Steve Scherf et al.
# Submitted via: CDex 1.70beta2
#
DISCID=7b0c960a
DTITLE=Jesper Lundgaard and Mads Vinding - Two Basses
DYEAR=2002
DGENRE=Jazz
TTITLE0=lundgaard_vinding - god bless the child
TTITLE1=lundgaard_vinding - secret love
TTITLE2=lundgaard_vinding - trubbel (trouble)
TTITLE3=lundgaard_vinding - top of the mountain
TTITLE4=lundgaard_vinding - don't get around much anymore
TTITLE5=lundgaard_vinding - a child is born
TTITLE6=lundgaard_vinding - i can see the bright islands
TTITLE7=lundgaard_vinding - loverman
TTITLE8=lundgaard_vinding - basslines
TTITLE9=Nocturne
EXTD=YEAR: 2002
EXTT0=
EXTT1=
EXTT2=
EXTT3=
EXTT4=
EXTT5=
EXTT6=
EXTT7=
EXTT8=
EXTT9=
PLAYORDER=
